# xmcd
# 
# Track frame offsets:
#     150
#     17497
#     34258
#     48304
#     63355
#     78522
#     100080
#     117768
#     132121
#     146928
#     162444
#     178274
#     193446
#     213905
#     233283
#     249652
#     265312
#     284004
#     297337
#     311142
# 
# Disc length: 4564
# 
# Revision: 0
# Processed by: cddbd v1.5.2PL0 Copyright (c) Steve Scherf et al.
# Submitted via: BonkEnc v1.0
# 
DISCID=3011d214
DTITLE=Guilherme and Santiago - Acustico Ao Vivo
DYEAR=2007
DGENRE=Country
TTITLE0=01 - PEGA FOGO CABARÉ
TTITLE1=02 - ALO MEU POVO
TTITLE2=03 - GOSTO DE MULHER, MEU AMIGO DE PINGA
TTITLE3=04 - MAGIA E MISTÉRIO
TTITLE4=05 - DO OUTRO LADO DA CIDADE
TTITLE5=06 - AZUL
TTITLE6=07 - E PRA SEMPRE TE AMAR
TTITLE7=08 - PEÃO NÃO CHORA
TTITLE8=09 - CORAÇÃO 
TTITLE9=10 - FRANGUINHO NA PANELA
TTITLE10=11 - HABITO
TTITLE11=12 - ESSA PAIXAO VIROU CHICLETE
TTITLE12=13 - O NOSSO AMOR
TTITLE13=14 - Blusa Vermelha - Último Adeus 
TTITLE14=15 - EU GOSTO DE MULHER
TTITLE15=16 - PRA QUE CHORAR 
TTITLE16=17 - CHOVENDO ESTRELAS
TTITLE17=18 - ainda ontem chorei de saudades
TTITLE18=19 - precizo desse amor
TTITLE19=20 - ME ESQUECA/NO LIMITE
EXTD=
EXTT0=
EXTT1=
EXTT2=
EXTT3=
EXTT4=
EXTT5=
EXTT6=
EXTT7=
EXTT8=
EXTT9=
EXTT10=
EXTT11=
EXTT12=
EXTT13=
EXTT14=
EXTT15=
EXTT16=
EXTT17=
EXTT18=
EXTT19=
PLAYORDER=
